<svg width="475" height="81" viewBox="0 0 475 81" fill="none" xmlns="http://www.w3.org/2000/svg">
    <mask id="path-1-outside-1_1_8" maskUnits="userSpaceOnUse" x="0.109375" y="0.382812" width="475" height="80" fill="black">
        <rect fill="white" x="0.109375" y="0.382812" width="475" height="80"/>
        <path d="M34.0859 34.7109V28.5781H10.3359V10.2969H37.6797V4.125H3.10938V61H38.0312V54.8672H10.3359V34.7109H34.0859Z"/>
        <path d="M68.3047 34.3984L57.1328 18.7344H48.7734L64.5156 39.6328L48.3438 61H56.7812L68.4609 44.9062L80.1406 61H88.5L72.3281 39.6328L88.0703 18.7344H79.5938L68.3047 34.3984Z"/>
        <path d="M98.8516 77.25H106.078V56.9375C106.599 57.5104 107.159 58.0443 107.758 58.5391C108.357 59.0078 108.995 59.4375 109.672 59.8281C110.792 60.4531 112.042 60.9349 113.422 61.2734C114.828 61.612 116.339 61.7812 117.953 61.7812C120.609 61.7812 122.966 61.2344 125.023 60.1406C127.107 59.0469 128.852 57.5365 130.258 55.6094C131.664 53.6823 132.732 51.4167 133.461 48.8125C134.19 46.1823 134.555 43.3568 134.555 40.3359V39.5156C134.555 36.3646 134.19 33.474 133.461 30.8438C132.732 28.1875 131.664 25.9089 130.258 24.0078C128.852 22.1068 127.107 20.6224 125.023 19.5547C122.94 18.487 120.544 17.9531 117.836 17.9531C116.299 17.9531 114.854 18.1224 113.5 18.4609C112.172 18.7734 110.961 19.2422 109.867 19.8672C109.086 20.2839 108.357 20.7917 107.68 21.3906C107.003 21.9635 106.378 22.6146 105.805 23.3438L105.453 18.7344H98.8516V77.25ZM127.328 39.5156V40.3359C127.328 42.3932 127.094 44.3594 126.625 46.2344C126.182 48.1094 125.492 49.763 124.555 51.1953C123.617 52.6276 122.419 53.7734 120.961 54.6328C119.503 55.4661 117.771 55.8828 115.766 55.8828C114.516 55.8828 113.37 55.7266 112.328 55.4141C111.312 55.1016 110.388 54.6719 109.555 54.125C108.826 53.6562 108.174 53.0833 107.602 52.4062C107.029 51.7292 106.521 51 106.078 50.2188V29.8672C106.573 28.9818 107.146 28.1745 107.797 27.4453C108.448 26.7161 109.19 26.1042 110.023 25.6094C110.779 25.1146 111.625 24.737 112.562 24.4766C113.526 24.2161 114.568 24.0859 115.688 24.0859C117.719 24.0859 119.464 24.5026 120.922 25.3359C122.38 26.1693 123.591 27.2891 124.555 28.6953C125.492 30.1276 126.182 31.7812 126.625 33.6562C127.094 35.5052 127.328 37.4583 127.328 39.5156Z"/>
        <path d="M165.609 61.7812C169.724 61.7812 173.174 60.9609 175.961 59.3203C178.773 57.6536 180.883 55.7526 182.289 53.6172L177.875 50.1797C176.547 51.8984 174.88 53.2786 172.875 54.3203C170.87 55.362 168.578 55.8828 166 55.8828C164.047 55.8828 162.263 55.5182 160.648 54.7891C159.034 54.0599 157.654 53.0573 156.508 51.7812C155.388 50.5833 154.503 49.2031 153.852 47.6406C153.227 46.0781 152.823 44.2682 152.641 42.2109V41.9375H182.836V38.6953C182.836 35.7526 182.458 33.0182 181.703 30.4922C180.974 27.9661 179.854 25.7656 178.344 23.8906C176.833 22.0417 174.932 20.5964 172.641 19.5547C170.375 18.487 167.719 17.9531 164.672 17.9531C162.25 17.9531 159.88 18.4479 157.562 19.4375C155.271 20.4271 153.227 21.8464 151.43 23.6953C149.607 25.5703 148.148 27.862 147.055 30.5703C145.961 33.2526 145.414 36.2995 145.414 39.7109V41.3516C145.414 44.2943 145.909 47.0156 146.898 49.5156C147.888 52.0156 149.268 54.1771 151.039 56C152.81 57.8229 154.932 59.2422 157.406 60.2578C159.906 61.2734 162.641 61.7812 165.609 61.7812ZM164.672 23.8906C166.521 23.8906 168.109 24.2292 169.438 24.9062C170.792 25.5833 171.911 26.4688 172.797 27.5625C173.682 28.6562 174.372 29.9583 174.867 31.4688C175.362 32.9531 175.609 34.3464 175.609 35.6484V36H152.875C153.161 34.0469 153.656 32.3281 154.359 30.8438C155.089 29.3333 155.974 28.0573 157.016 27.0156C158.057 26 159.229 25.2318 160.531 24.7109C161.833 24.1641 163.214 23.8906 164.672 23.8906Z"/>
        <path d="M222.68 17.9531C219.607 17.9531 216.859 18.6302 214.438 19.9844C212.042 21.3125 209.984 23.1354 208.266 25.4531L208.227 24.3984L207.914 18.7344H201.039V61H208.305V33.8906C208.773 32.5885 209.359 31.4167 210.062 30.375C210.792 29.3073 211.638 28.4089 212.602 27.6797C213.669 26.8464 214.919 26.2214 216.352 25.8047C217.784 25.362 219.385 25.1406 221.156 25.1406C222.536 25.1406 223.852 25.2188 225.102 25.375C226.378 25.5052 227.719 25.7266 229.125 26.0391L230.102 18.9688C229.372 18.6562 228.279 18.4089 226.82 18.2266C225.388 18.0443 224.008 17.9531 222.68 17.9531Z"/>
        <path d="M244.164 18.7344V25.0234H258.539V54.75H244.164V61H279.555V54.75H265.766V18.7344H244.164ZM257.602 7.64062C257.602 8.8125 257.953 9.78906 258.656 10.5703C259.385 11.3516 260.479 11.7422 261.938 11.7422C263.37 11.7422 264.451 11.3516 265.18 10.5703C265.909 9.78906 266.273 8.8125 266.273 7.64062C266.273 6.98958 266.169 6.39062 265.961 5.84375C265.753 5.29688 265.44 4.84115 265.023 4.47656C264.685 4.13802 264.255 3.8776 263.734 3.69531C263.214 3.48698 262.615 3.38281 261.938 3.38281C261.26 3.38281 260.648 3.48698 260.102 3.69531C259.581 3.8776 259.151 4.13802 258.812 4.47656C258.396 4.86719 258.083 5.33594 257.875 5.88281C257.693 6.42969 257.602 7.01562 257.602 7.64062Z"/>
        <path d="M309.75 61.7812C313.865 61.7812 317.315 60.9609 320.102 59.3203C322.914 57.6536 325.023 55.7526 326.43 53.6172L322.016 50.1797C320.688 51.8984 319.021 53.2786 317.016 54.3203C315.01 55.362 312.719 55.8828 310.141 55.8828C308.188 55.8828 306.404 55.5182 304.789 54.7891C303.174 54.0599 301.794 53.0573 300.648 51.7812C299.529 50.5833 298.643 49.2031 297.992 47.6406C297.367 46.0781 296.964 44.2682 296.781 42.2109V41.9375H326.977V38.6953C326.977 35.7526 326.599 33.0182 325.844 30.4922C325.115 27.9661 323.995 25.7656 322.484 23.8906C320.974 22.0417 319.073 20.5964 316.781 19.5547C314.516 18.487 311.859 17.9531 308.812 17.9531C306.391 17.9531 304.021 18.4479 301.703 19.4375C299.411 20.4271 297.367 21.8464 295.57 23.6953C293.747 25.5703 292.289 27.862 291.195 30.5703C290.102 33.2526 289.555 36.2995 289.555 39.7109V41.3516C289.555 44.2943 290.049 47.0156 291.039 49.5156C292.029 52.0156 293.409 54.1771 295.18 56C296.951 57.8229 299.073 59.2422 301.547 60.2578C304.047 61.2734 306.781 61.7812 309.75 61.7812ZM308.812 23.8906C310.661 23.8906 312.25 24.2292 313.578 24.9062C314.932 25.5833 316.052 26.4688 316.938 27.5625C317.823 28.6562 318.513 29.9583 319.008 31.4688C319.503 32.9531 319.75 34.3464 319.75 35.6484V36H297.016C297.302 34.0469 297.797 32.3281 298.5 30.8438C299.229 29.3333 300.115 28.0573 301.156 27.0156C302.198 26 303.37 25.2318 304.672 24.7109C305.974 24.1641 307.354 23.8906 308.812 23.8906Z"/>
        <path d="M339.125 61H346.352V30.6875C346.846 29.776 347.419 28.9427 348.07 28.1875C348.747 27.4323 349.477 26.7682 350.258 26.1953C351.221 25.5443 352.276 25.0365 353.422 24.6719C354.568 24.2812 355.805 24.0859 357.133 24.0859C358.669 24.0859 360.023 24.2682 361.195 24.6328C362.393 24.9974 363.409 25.5833 364.242 26.3906C365.049 27.1979 365.661 28.2526 366.078 29.5547C366.495 30.8568 366.703 32.4453 366.703 34.3203V61H373.93V34.1641C373.93 31.3516 373.578 28.9297 372.875 26.8984C372.198 24.8411 371.221 23.1484 369.945 21.8203C368.669 20.4922 367.12 19.5156 365.297 18.8906C363.5 18.2656 361.495 17.9531 359.281 17.9531C357.641 17.9792 356.078 18.2266 354.594 18.6953C353.135 19.138 351.781 19.776 350.531 20.6094C349.698 21.1562 348.904 21.8073 348.148 22.5625C347.419 23.2917 346.742 24.099 346.117 24.9844L345.609 18.7344H339.125V61Z"/>
        <path d="M405.18 55.9219C402.914 55.9219 401.013 55.4792 399.477 54.5938C397.966 53.6823 396.755 52.4974 395.844 51.0391C394.906 49.6068 394.229 47.9922 393.812 46.1953C393.422 44.3724 393.227 42.5365 393.227 40.6875V39.0469C393.227 37.224 393.422 35.4141 393.812 33.6172C394.229 31.8203 394.906 30.1927 395.844 28.7344C396.781 27.3021 398.005 26.1432 399.516 25.2578C401.052 24.3464 402.94 23.8906 405.18 23.8906C406.638 23.8906 407.992 24.138 409.242 24.6328C410.518 25.1276 411.612 25.8047 412.523 26.6641C413.435 27.5234 414.151 28.526 414.672 29.6719C415.219 30.7917 415.505 31.9896 415.531 33.2656H422.367C422.367 31.1302 421.938 29.125 421.078 27.25C420.219 25.375 419.034 23.7474 417.523 22.3672C415.987 21.013 414.164 19.9453 412.055 19.1641C409.971 18.3568 407.68 17.9531 405.18 17.9531C401.977 17.9531 399.177 18.526 396.781 19.6719C394.385 20.8177 392.393 22.3542 390.805 24.2812C389.19 26.2344 387.979 28.487 387.172 31.0391C386.365 33.5911 385.961 36.2604 385.961 39.0469V40.6875C385.961 43.5 386.365 46.1823 387.172 48.7344C387.979 51.2604 389.19 53.487 390.805 55.4141C392.393 57.3672 394.385 58.9167 396.781 60.0625C399.177 61.2083 401.977 61.7812 405.18 61.7812C407.419 61.7812 409.568 61.4036 411.625 60.6484C413.682 59.8672 415.505 58.8255 417.094 57.5234C418.682 56.2474 419.945 54.763 420.883 53.0703C421.846 51.3516 422.341 49.5547 422.367 47.6797H415.531C415.505 48.8516 415.193 49.9453 414.594 50.9609C414.021 51.9505 413.253 52.8099 412.289 53.5391C411.326 54.2943 410.219 54.8802 408.969 55.2969C407.745 55.7135 406.482 55.9219 405.18 55.9219Z"/>
        <path d="M453.891 61.7812C458.005 61.7812 461.456 60.9609 464.242 59.3203C467.055 57.6536 469.164 55.7526 470.57 53.6172L466.156 50.1797C464.828 51.8984 463.161 53.2786 461.156 54.3203C459.151 55.362 456.859 55.8828 454.281 55.8828C452.328 55.8828 450.544 55.5182 448.93 54.7891C447.315 54.0599 445.935 53.0573 444.789 51.7812C443.669 50.5833 442.784 49.2031 442.133 47.6406C441.508 46.0781 441.104 44.2682 440.922 42.2109V41.9375H471.117V38.6953C471.117 35.7526 470.74 33.0182 469.984 30.4922C469.255 27.9661 468.135 25.7656 466.625 23.8906C465.115 22.0417 463.214 20.5964 460.922 19.5547C458.656 18.487 456 17.9531 452.953 17.9531C450.531 17.9531 448.161 18.4479 445.844 19.4375C443.552 20.4271 441.508 21.8464 439.711 23.6953C437.888 25.5703 436.43 27.862 435.336 30.5703C434.242 33.2526 433.695 36.2995 433.695 39.7109V41.3516C433.695 44.2943 434.19 47.0156 435.18 49.5156C436.169 52.0156 437.549 54.1771 439.32 56C441.091 57.8229 443.214 59.2422 445.688 60.2578C448.188 61.2734 450.922 61.7812 453.891 61.7812ZM452.953 23.8906C454.802 23.8906 456.391 24.2292 457.719 24.9062C459.073 25.5833 460.193 26.4688 461.078 27.5625C461.964 28.6562 462.654 29.9583 463.148 31.4688C463.643 32.9531 463.891 34.3464 463.891 35.6484V36H441.156C441.443 34.0469 441.938 32.3281 442.641 30.8438C443.37 29.3333 444.255 28.0573 445.297 27.0156C446.339 26 447.51 25.2318 448.812 24.7109C450.115 24.1641 451.495 23.8906 452.953 23.8906Z"/>
    </mask>
    <path d="M34.0859 34.7109V28.5781H10.3359V10.2969H37.6797V4.125H3.10938V61H38.0312V54.8672H10.3359V34.7109H34.0859Z" stroke="#FA7C30" stroke-width="6" mask="url(#path-1-outside-1_1_8)"/>
    <path d="M68.3047 34.3984L57.1328 18.7344H48.7734L64.5156 39.6328L48.3438 61H56.7812L68.4609 44.9062L80.1406 61H88.5L72.3281 39.6328L88.0703 18.7344H79.5938L68.3047 34.3984Z" stroke="#FA7C30" stroke-width="6" mask="url(#path-1-outside-1_1_8)"/>
    <path d="M98.8516 77.25H106.078V56.9375C106.599 57.5104 107.159 58.0443 107.758 58.5391C108.357 59.0078 108.995 59.4375 109.672 59.8281C110.792 60.4531 112.042 60.9349 113.422 61.2734C114.828 61.612 116.339 61.7812 117.953 61.7812C120.609 61.7812 122.966 61.2344 125.023 60.1406C127.107 59.0469 128.852 57.5365 130.258 55.6094C131.664 53.6823 132.732 51.4167 133.461 48.8125C134.19 46.1823 134.555 43.3568 134.555 40.3359V39.5156C134.555 36.3646 134.19 33.474 133.461 30.8438C132.732 28.1875 131.664 25.9089 130.258 24.0078C128.852 22.1068 127.107 20.6224 125.023 19.5547C122.94 18.487 120.544 17.9531 117.836 17.9531C116.299 17.9531 114.854 18.1224 113.5 18.4609C112.172 18.7734 110.961 19.2422 109.867 19.8672C109.086 20.2839 108.357 20.7917 107.68 21.3906C107.003 21.9635 106.378 22.6146 105.805 23.3438L105.453 18.7344H98.8516V77.25ZM127.328 39.5156V40.3359C127.328 42.3932 127.094 44.3594 126.625 46.2344C126.182 48.1094 125.492 49.763 124.555 51.1953C123.617 52.6276 122.419 53.7734 120.961 54.6328C119.503 55.4661 117.771 55.8828 115.766 55.8828C114.516 55.8828 113.37 55.7266 112.328 55.4141C111.312 55.1016 110.388 54.6719 109.555 54.125C108.826 53.6562 108.174 53.0833 107.602 52.4062C107.029 51.7292 106.521 51 106.078 50.2188V29.8672C106.573 28.9818 107.146 28.1745 107.797 27.4453C108.448 26.7161 109.19 26.1042 110.023 25.6094C110.779 25.1146 111.625 24.737 112.562 24.4766C113.526 24.2161 114.568 24.0859 115.688 24.0859C117.719 24.0859 119.464 24.5026 120.922 25.3359C122.38 26.1693 123.591 27.2891 124.555 28.6953C125.492 30.1276 126.182 31.7812 126.625 33.6562C127.094 35.5052 127.328 37.4583 127.328 39.5156Z" stroke="#FA7C30" stroke-width="6" mask="url(#path-1-outside-1_1_8)"/>
    <path d="M165.609 61.7812C169.724 61.7812 173.174 60.9609 175.961 59.3203C178.773 57.6536 180.883 55.7526 182.289 53.6172L177.875 50.1797C176.547 51.8984 174.88 53.2786 172.875 54.3203C170.87 55.362 168.578 55.8828 166 55.8828C164.047 55.8828 162.263 55.5182 160.648 54.7891C159.034 54.0599 157.654 53.0573 156.508 51.7812C155.388 50.5833 154.503 49.2031 153.852 47.6406C153.227 46.0781 152.823 44.2682 152.641 42.2109V41.9375H182.836V38.6953C182.836 35.7526 182.458 33.0182 181.703 30.4922C180.974 27.9661 179.854 25.7656 178.344 23.8906C176.833 22.0417 174.932 20.5964 172.641 19.5547C170.375 18.487 167.719 17.9531 164.672 17.9531C162.25 17.9531 159.88 18.4479 157.562 19.4375C155.271 20.4271 153.227 21.8464 151.43 23.6953C149.607 25.5703 148.148 27.862 147.055 30.5703C145.961 33.2526 145.414 36.2995 145.414 39.7109V41.3516C145.414 44.2943 145.909 47.0156 146.898 49.5156C147.888 52.0156 149.268 54.1771 151.039 56C152.81 57.8229 154.932 59.2422 157.406 60.2578C159.906 61.2734 162.641 61.7812 165.609 61.7812ZM164.672 23.8906C166.521 23.8906 168.109 24.2292 169.438 24.9062C170.792 25.5833 171.911 26.4688 172.797 27.5625C173.682 28.6562 174.372 29.9583 174.867 31.4688C175.362 32.9531 175.609 34.3464 175.609 35.6484V36H152.875C153.161 34.0469 153.656 32.3281 154.359 30.8438C155.089 29.3333 155.974 28.0573 157.016 27.0156C158.057 26 159.229 25.2318 160.531 24.7109C161.833 24.1641 163.214 23.8906 164.672 23.8906Z" stroke="#FA7C30" stroke-width="6" mask="url(#path-1-outside-1_1_8)"/>
    <path d="M222.68 17.9531C219.607 17.9531 216.859 18.6302 214.438 19.9844C212.042 21.3125 209.984 23.1354 208.266 25.4531L208.227 24.3984L207.914 18.7344H201.039V61H208.305V33.8906C208.773 32.5885 209.359 31.4167 210.062 30.375C210.792 29.3073 211.638 28.4089 212.602 27.6797C213.669 26.8464 214.919 26.2214 216.352 25.8047C217.784 25.362 219.385 25.1406 221.156 25.1406C222.536 25.1406 223.852 25.2188 225.102 25.375C226.378 25.5052 227.719 25.7266 229.125 26.0391L230.102 18.9688C229.372 18.6562 228.279 18.4089 226.82 18.2266C225.388 18.0443 224.008 17.9531 222.68 17.9531Z" stroke="#FA7C30" stroke-width="6" mask="url(#path-1-outside-1_1_8)"/>
    <path d="M244.164 18.7344V25.0234H258.539V54.75H244.164V61H279.555V54.75H265.766V18.7344H244.164ZM257.602 7.64062C257.602 8.8125 257.953 9.78906 258.656 10.5703C259.385 11.3516 260.479 11.7422 261.938 11.7422C263.37 11.7422 264.451 11.3516 265.18 10.5703C265.909 9.78906 266.273 8.8125 266.273 7.64062C266.273 6.98958 266.169 6.39062 265.961 5.84375C265.753 5.29688 265.44 4.84115 265.023 4.47656C264.685 4.13802 264.255 3.8776 263.734 3.69531C263.214 3.48698 262.615 3.38281 261.938 3.38281C261.26 3.38281 260.648 3.48698 260.102 3.69531C259.581 3.8776 259.151 4.13802 258.812 4.47656C258.396 4.86719 258.083 5.33594 257.875 5.88281C257.693 6.42969 257.602 7.01562 257.602 7.64062Z" stroke="#FA7C30" stroke-width="6" mask="url(#path-1-outside-1_1_8)"/>
    <path d="M309.75 61.7812C313.865 61.7812 317.315 60.9609 320.102 59.3203C322.914 57.6536 325.023 55.7526 326.43 53.6172L322.016 50.1797C320.688 51.8984 319.021 53.2786 317.016 54.3203C315.01 55.362 312.719 55.8828 310.141 55.8828C308.188 55.8828 306.404 55.5182 304.789 54.7891C303.174 54.0599 301.794 53.0573 300.648 51.7812C299.529 50.5833 298.643 49.2031 297.992 47.6406C297.367 46.0781 296.964 44.2682 296.781 42.2109V41.9375H326.977V38.6953C326.977 35.7526 326.599 33.0182 325.844 30.4922C325.115 27.9661 323.995 25.7656 322.484 23.8906C320.974 22.0417 319.073 20.5964 316.781 19.5547C314.516 18.487 311.859 17.9531 308.812 17.9531C306.391 17.9531 304.021 18.4479 301.703 19.4375C299.411 20.4271 297.367 21.8464 295.57 23.6953C293.747 25.5703 292.289 27.862 291.195 30.5703C290.102 33.2526 289.555 36.2995 289.555 39.7109V41.3516C289.555 44.2943 290.049 47.0156 291.039 49.5156C292.029 52.0156 293.409 54.1771 295.18 56C296.951 57.8229 299.073 59.2422 301.547 60.2578C304.047 61.2734 306.781 61.7812 309.75 61.7812ZM308.812 23.8906C310.661 23.8906 312.25 24.2292 313.578 24.9062C314.932 25.5833 316.052 26.4688 316.938 27.5625C317.823 28.6562 318.513 29.9583 319.008 31.4688C319.503 32.9531 319.75 34.3464 319.75 35.6484V36H297.016C297.302 34.0469 297.797 32.3281 298.5 30.8438C299.229 29.3333 300.115 28.0573 301.156 27.0156C302.198 26 303.37 25.2318 304.672 24.7109C305.974 24.1641 307.354 23.8906 308.812 23.8906Z" stroke="#FA7C30" stroke-width="6" mask="url(#path-1-outside-1_1_8)"/>
    <path d="M339.125 61H346.352V30.6875C346.846 29.776 347.419 28.9427 348.07 28.1875C348.747 27.4323 349.477 26.7682 350.258 26.1953C351.221 25.5443 352.276 25.0365 353.422 24.6719C354.568 24.2812 355.805 24.0859 357.133 24.0859C358.669 24.0859 360.023 24.2682 361.195 24.6328C362.393 24.9974 363.409 25.5833 364.242 26.3906C365.049 27.1979 365.661 28.2526 366.078 29.5547C366.495 30.8568 366.703 32.4453 366.703 34.3203V61H373.93V34.1641C373.93 31.3516 373.578 28.9297 372.875 26.8984C372.198 24.8411 371.221 23.1484 369.945 21.8203C368.669 20.4922 367.12 19.5156 365.297 18.8906C363.5 18.2656 361.495 17.9531 359.281 17.9531C357.641 17.9792 356.078 18.2266 354.594 18.6953C353.135 19.138 351.781 19.776 350.531 20.6094C349.698 21.1562 348.904 21.8073 348.148 22.5625C347.419 23.2917 346.742 24.099 346.117 24.9844L345.609 18.7344H339.125V61Z" stroke="#FA7C30" stroke-width="6" mask="url(#path-1-outside-1_1_8)"/>
    <path d="M405.18 55.9219C402.914 55.9219 401.013 55.4792 399.477 54.5938C397.966 53.6823 396.755 52.4974 395.844 51.0391C394.906 49.6068 394.229 47.9922 393.812 46.1953C393.422 44.3724 393.227 42.5365 393.227 40.6875V39.0469C393.227 37.224 393.422 35.4141 393.812 33.6172C394.229 31.8203 394.906 30.1927 395.844 28.7344C396.781 27.3021 398.005 26.1432 399.516 25.2578C401.052 24.3464 402.94 23.8906 405.18 23.8906C406.638 23.8906 407.992 24.138 409.242 24.6328C410.518 25.1276 411.612 25.8047 412.523 26.6641C413.435 27.5234 414.151 28.526 414.672 29.6719C415.219 30.7917 415.505 31.9896 415.531 33.2656H422.367C422.367 31.1302 421.938 29.125 421.078 27.25C420.219 25.375 419.034 23.7474 417.523 22.3672C415.987 21.013 414.164 19.9453 412.055 19.1641C409.971 18.3568 407.68 17.9531 405.18 17.9531C401.977 17.9531 399.177 18.526 396.781 19.6719C394.385 20.8177 392.393 22.3542 390.805 24.2812C389.19 26.2344 387.979 28.487 387.172 31.0391C386.365 33.5911 385.961 36.2604 385.961 39.0469V40.6875C385.961 43.5 386.365 46.1823 387.172 48.7344C387.979 51.2604 389.19 53.487 390.805 55.4141C392.393 57.3672 394.385 58.9167 396.781 60.0625C399.177 61.2083 401.977 61.7812 405.18 61.7812C407.419 61.7812 409.568 61.4036 411.625 60.6484C413.682 59.8672 415.505 58.8255 417.094 57.5234C418.682 56.2474 419.945 54.763 420.883 53.0703C421.846 51.3516 422.341 49.5547 422.367 47.6797H415.531C415.505 48.8516 415.193 49.9453 414.594 50.9609C414.021 51.9505 413.253 52.8099 412.289 53.5391C411.326 54.2943 410.219 54.8802 408.969 55.2969C407.745 55.7135 406.482 55.9219 405.18 55.9219Z" stroke="#FA7C30" stroke-width="6" mask="url(#path-1-outside-1_1_8)"/>
    <path d="M453.891 61.7812C458.005 61.7812 461.456 60.9609 464.242 59.3203C467.055 57.6536 469.164 55.7526 470.57 53.6172L466.156 50.1797C464.828 51.8984 463.161 53.2786 461.156 54.3203C459.151 55.362 456.859 55.8828 454.281 55.8828C452.328 55.8828 450.544 55.5182 448.93 54.7891C447.315 54.0599 445.935 53.0573 444.789 51.7812C443.669 50.5833 442.784 49.2031 442.133 47.6406C441.508 46.0781 441.104 44.2682 440.922 42.2109V41.9375H471.117V38.6953C471.117 35.7526 470.74 33.0182 469.984 30.4922C469.255 27.9661 468.135 25.7656 466.625 23.8906C465.115 22.0417 463.214 20.5964 460.922 19.5547C458.656 18.487 456 17.9531 452.953 17.9531C450.531 17.9531 448.161 18.4479 445.844 19.4375C443.552 20.4271 441.508 21.8464 439.711 23.6953C437.888 25.5703 436.43 27.862 435.336 30.5703C434.242 33.2526 433.695 36.2995 433.695 39.7109V41.3516C433.695 44.2943 434.19 47.0156 435.18 49.5156C436.169 52.0156 437.549 54.1771 439.32 56C441.091 57.8229 443.214 59.2422 445.688 60.2578C448.188 61.2734 450.922 61.7812 453.891 61.7812ZM452.953 23.8906C454.802 23.8906 456.391 24.2292 457.719 24.9062C459.073 25.5833 460.193 26.4688 461.078 27.5625C461.964 28.6562 462.654 29.9583 463.148 31.4688C463.643 32.9531 463.891 34.3464 463.891 35.6484V36H441.156C441.443 34.0469 441.938 32.3281 442.641 30.8438C443.37 29.3333 444.255 28.0573 445.297 27.0156C446.339 26 447.51 25.2318 448.812 24.7109C450.115 24.1641 451.495 23.8906 452.953 23.8906Z" stroke="#FA7C30" stroke-width="6" mask="url(#path-1-outside-1_1_8)"/>
</svg>
