<?xml version="1.0" standalone="no"?>
<!DOCTYPE svg PUBLIC "-//W3C//DTD SVG 20010904//EN"
 "http://www.w3.org/TR/2001/REC-SVG-20010904/DTD/svg10.dtd">
<svg version="1.0" xmlns="http://www.w3.org/2000/svg"
 width="500.000000pt" height="500.000000pt" viewBox="0 0 500.000000 500.000000"
 preserveAspectRatio="xMidYMid meet">

<g transform="translate(0.000000,500.000000) scale(0.100000,-0.100000)"
fill="#000000" stroke="none">
<path d="M2280 4708 c-600 -56 -1191 -389 -1552 -874 -672 -904 -575 -2144
228 -2925 178 -173 346 -291 567 -399 619 -304 1335 -304 1954 0 443 217 796
570 1013 1013 304 619 304 1335 0 1954 -407 831 -1283 1319 -2210 1231z m438
-159 c473 -51 905 -260 1242 -598 511 -514 713 -1246 539 -1951 -130 -524
-473 -987 -940 -1268 -321 -192 -683 -292 -1059 -292 -1136 0 -2060 924 -2060
2060 0 1045 793 1932 1830 2049 110 12 336 13 448 0z"/>
<path d="M2645 4190 c-55 -22 -94 -54 -168 -143 -66 -79 -110 -99 -226 -106
l-94 -6 63 -75 c79 -94 125 -165 152 -235 20 -52 22 -54 65 -61 103 -15 156 7
284 118 95 82 173 128 220 128 18 0 38 -12 63 -40 41 -45 45 -73 20 -141 -8
-24 -31 -118 -50 -208 -52 -240 -81 -325 -138 -406 l-21 -30 -6 61 c-12 124
-78 204 -169 204 -63 0 -111 -35 -145 -104 l-27 -55 26 -57 c14 -31 26 -62 26
-70 0 -7 13 -27 29 -43 16 -17 32 -39 36 -50 8 -25 29 -33 61 -21 14 6 30 7
35 4 17 -10 -11 -33 -50 -40 -45 -8 -72 -22 -89 -46 -8 -11 -25 -18 -44 -18
-18 0 -83 -10 -145 -22 -112 -22 -115 -22 -216 -5 -56 9 -127 17 -158 17 -48
0 -59 4 -84 30 l-28 29 26 80 c41 123 57 237 56 395 -1 77 -4 152 -8 166 -13
47 -155 93 -347 111 -198 18 -464 -20 -592 -85 l-52 -26 -2 -73 c-4 -210 12
-339 63 -485 39 -110 84 -193 158 -284 87 -109 252 -238 305 -238 63 0 194
111 276 233 43 64 47 67 85 67 27 0 74 -16 148 -51 l109 -52 156 5 c114 4 171
2 207 -8 28 -7 69 -13 92 -14 62 0 88 -14 123 -65 18 -26 30 -48 28 -49 -1 -2
-17 -11 -35 -20 -72 -37 -92 -73 -138 -251 -34 -137 -57 -191 -85 -206 -8 -4
-40 -15 -70 -23 -30 -9 -84 -32 -119 -53 -58 -35 -89 -62 -218 -200 -41 -43
-44 -45 -85 -39 -76 12 -102 10 -113 -9 -66 -113 -139 -185 -190 -185 -11 0
-30 -6 -41 -14 -34 -26 -3 -41 84 -40 99 1 153 21 324 126 119 72 211 118 238
118 5 0 3 -15 -5 -34 -8 -19 -24 -87 -36 -153 -30 -169 -58 -225 -120 -238
-15 -4 -33 -13 -39 -20 -7 -8 -18 -63 -25 -122 -9 -73 -22 -126 -39 -163 -30
-63 -32 -83 -11 -100 21 -18 42 -6 59 33 8 19 44 67 81 107 56 62 79 100 155
254 68 139 115 219 204 345 64 91 130 188 146 216 21 36 52 68 102 106 40 29
103 83 139 120 65 65 75 81 195 319 56 113 58 293 4 450 -30 90 -32 101 -27
200 4 81 12 126 36 197 28 83 31 105 31 216 0 130 3 141 51 171 l26 16 119
-157 c66 -87 134 -181 152 -209 96 -152 320 -146 494 14 128 118 147 263 52
388 -80 104 -267 106 -401 4 -60 -45 -114 -116 -137 -180 -10 -28 -22 -47 -27
-44 -17 10 -209 273 -209 286 0 7 -9 28 -20 46 -11 18 -20 39 -20 47 0 8 -6
15 -12 16 -34 2 -58 6 -61 10 -2 2 -57 83 -123 179 -65 96 -136 194 -157 218
-36 38 -44 42 -86 41 -25 0 -69 -9 -96 -19z m-907 -926 c17 -12 22 -25 22 -60
0 -38 -3 -45 -17 -40 -10 2 -52 10 -93 17 -41 7 -79 15 -83 19 -12 11 13 57
37 68 32 16 109 14 134 -4z m-453 -29 c14 -13 25 -28 25 -34 0 -11 -141 -44
-173 -39 -36 5 -29 47 12 75 47 32 104 31 136 -2z m-7 -345 c97 -44 248 -32
380 30 36 17 66 29 68 28 10 -11 -18 -92 -38 -111 -14 -13 -31 -40 -37 -60
-17 -50 -75 -72 -191 -72 -71 0 -94 4 -142 27 -71 33 -132 95 -152 155 -25 72
-22 78 27 48 23 -15 61 -35 85 -45z"/>
</g>
</svg>
