<?xml version="1.0" standalone="no"?>
<!DOCTYPE svg PUBLIC "-//W3C//DTD SVG 20010904//EN"
 "http://www.w3.org/TR/2001/REC-SVG-20010904/DTD/svg10.dtd">
<svg version="1.0" xmlns="http://www.w3.org/2000/svg"
 width="760.000000pt" height="760.000000pt" viewBox="0 0 760.000000 760.000000"
 preserveAspectRatio="xMidYMid meet">

<g transform="translate(0.000000,760.000000) scale(0.100000,-0.100000)"
fill="#000000" stroke="none">
<path d="M1270 5930 l0 -90 2530 0 2530 0 0 90 0 90 -2530 0 -2530 0 0 -90z"/>
<path d="M3575 5553 c3 -18 17 -68 31 -111 13 -42 36 -117 51 -165 l27 -88 35
3 c33 3 35 6 52 63 23 81 88 290 95 309 5 13 -1 16 -30 16 -24 0 -36 -5 -36
-14 0 -14 -54 -195 -70 -233 -12 -28 -30 -30 -30 -3 0 10 -4 29 -9 42 -11 26
-34 103 -50 164 -10 36 -16 42 -42 46 -30 5 -30 4 -24 -29z"/>
<path d="M4161 5581 c-21 -6 -32 -30 -87 -191 -35 -102 -63 -189 -64 -193 0
-5 15 -7 33 -5 25 2 34 9 42 33 17 51 23 55 83 55 69 0 76 -4 91 -52 11 -32
17 -38 42 -38 16 0 29 5 29 11 0 23 -121 364 -133 375 -7 6 -23 8 -36 5z m40
-171 c10 -35 16 -67 13 -72 -7 -11 -81 -10 -89 1 -3 5 -1 20 5 33 5 13 14 42
20 66 6 24 16 42 22 40 6 -2 20 -33 29 -68z"/>
<path d="M5893 5581 c-20 -6 -19 -10 38 -126 55 -113 59 -124 59 -192 l0 -73
30 0 30 0 0 80 c0 77 2 84 55 190 30 60 55 112 55 115 0 3 -15 5 -34 5 -31 0
-35 -4 -65 -70 -18 -38 -38 -70 -45 -70 -7 0 -27 31 -45 69 -33 73 -43 81 -78
72z"/>
<path d="M1430 5407 c0 -223 -4 -217 129 -217 136 0 131 -8 131 213 l0 177
-30 0 -30 0 -2 -162 -3 -163 -62 -3 c-46 -2 -63 0 -63 10 -1 7 -1 82 0 166 l1
152 -36 0 -35 0 0 -173z"/>
<path d="M1860 5556 c0 -23 4 -25 53 -28 l52 -3 3 -167 2 -168 30 0 30 0 0
159 c0 116 3 161 13 169 7 6 33 12 57 14 37 2 45 6 45 23 0 19 -8 20 -142 23
l-143 3 0 -25z"/>
<path d="M2385 5568 c-13 -35 -125 -371 -125 -375 0 -2 15 -3 33 -1 25 2 34 9
42 33 17 51 23 55 83 55 69 0 76 -4 91 -52 11 -32 17 -38 42 -38 17 0 29 5 29
13 0 13 -115 351 -125 367 -9 14 -65 12 -70 -2z m65 -154 c11 -36 17 -70 14
-75 -6 -11 -81 -12 -87 -1 -7 10 35 142 45 142 4 0 16 -30 28 -66z"/>
<path d="M2800 5385 l0 -195 30 0 30 0 0 85 0 86 73 -3 72 -3 3 -82 3 -83 29
0 30 0 0 195 0 195 -30 0 -29 0 -3 -77 -3 -78 -70 0 -70 0 -3 78 -3 77 -29 0
-30 0 0 -195z"/>
<path d="M4550 5385 l0 -195 116 0 115 0 -3 28 c-3 27 -4 27 -80 30 l-78 3 0
164 0 165 -35 0 -35 0 0 -195z"/>
<path d="M5000 5385 l0 -195 114 0 c92 0 115 3 120 15 13 36 -3 45 -85 45
l-79 0 0 165 0 165 -35 0 -35 0 0 -195z"/>
<path d="M5440 5385 l0 -195 121 0 120 0 -3 28 c-3 27 -4 27 -85 30 l-83 3 0
54 0 55 80 0 81 0 -4 28 c-4 27 -5 27 -81 30 l-77 3 3 52 3 52 83 3 c80 3 82
3 82 27 l0 25 -120 0 -120 0 0 -195z"/>
<path d="M1270 4885 l0 -45 2530 0 2530 0 0 45 0 45 -2530 0 -2530 0 0 -45z"/>
<path d="M1430 4001 l0 -570 56 -153 c31 -84 61 -159 66 -165 15 -19 1141 -19
1155 0 5 6 35 81 66 165 l57 153 -2 567 -3 567 -320 0 -320 0 -3 -152 -3 -153
150 0 c82 0 156 -3 165 -6 14 -5 16 -50 16 -403 0 -295 -3 -400 -12 -409 -9
-9 -106 -12 -375 -12 l-363 0 -2 568 -3 567 -162 3 -163 2 0 -569z"/>
<path d="M3057 4563 c-6 -6 1 -28 98 -288 118 -317 193 -519 275 -740 144
-388 153 -410 163 -422 7 -10 61 -13 207 -13 146 0 200 3 207 13 10 12 23 44
146 377 36 96 94 254 130 350 188 504 227 610 246 663 16 45 18 59 8 63 -7 2
-80 3 -162 2 l-149 -3 -33 -85 c-30 -80 -109 -293 -260 -700 -35 -96 -77 -209
-92 -250 -16 -41 -34 -75 -41 -75 -7 0 -21 25 -32 55 -11 30 -53 143 -93 250
-40 107 -110 294 -155 415 -45 121 -96 258 -114 305 l-32 85 -156 2 c-86 1
-158 -1 -161 -4z"/>
<path d="M4777 4563 c-4 -3 -7 -260 -7 -569 l0 -563 57 -153 c31 -84 61 -159
66 -165 7 -10 135 -13 577 -13 442 0 570 3 578 13 5 6 35 81 66 165 l56 153 0
570 0 569 -162 -2 -163 -3 -3 -567 -2 -568 -363 0 c-269 0 -366 3 -375 12 -9
9 -12 149 -12 570 l0 558 -153 0 c-85 0 -157 -3 -160 -7z"/>
<path d="M1277 2823 c-4 -3 -7 -24 -7 -45 l0 -38 2531 0 2530 0 -3 43 -3 42
-2521 3 c-1386 1 -2524 -1 -2527 -5z"/>
<path d="M1994 2485 c-3 -6 -3 -105 -2 -220 l3 -210 33 -3 32 -3 0 135 c0 74
4 137 9 140 4 3 44 -56 88 -132 78 -134 81 -137 116 -140 l37 -3 0 220 0 221
-35 0 -36 0 2 -132 c1 -78 -3 -134 -8 -135 -6 -2 -45 57 -87 131 -74 128 -78
134 -113 138 -20 2 -37 0 -39 -7z"/>
<path d="M5105 2492 c-3 -3 -5 -104 -5 -224 l0 -218 35 0 35 0 0 219 0 219
-30 4 c-17 3 -32 2 -35 0z"/>
<path d="M1430 2295 c0 -195 0 -196 25 -220 22 -23 31 -25 125 -25 146 0 140
-10 140 240 l0 200 -35 0 -35 0 -2 -182 -3 -183 -64 -3 c-45 -2 -67 1 -72 10
-5 7 -9 91 -9 186 l0 172 -35 0 -35 0 0 -195z"/>
<path d="M2589 2285 c-1 -113 -2 -211 -3 -217 -1 -8 12 -13 34 -13 l35 0 3
218 2 217 -35 0 -35 0 -1 -205z"/>
<path d="M2880 2488 c0 -2 11 -37 24 -78 13 -41 38 -122 56 -180 52 -174 52
-175 83 -178 33 -4 53 10 60 41 8 31 29 102 76 254 23 73 41 135 41 138 0 11
-71 4 -74 -7 -2 -7 -8 -29 -14 -48 -5 -19 -22 -78 -38 -130 -15 -52 -32 -101
-39 -108 -9 -10 -21 22 -56 140 l-45 153 -37 3 c-20 2 -37 2 -37 0z"/>
<path d="M3442 2273 l3 -218 128 -3 127 -3 0 35 0 35 -92 3 -93 3 0 55 0 55
85 5 85 5 0 30 0 30 -85 5 -85 5 0 55 0 55 93 3 92 3 0 29 0 30 -130 0 -130 0
2 -217z"/>
<path d="M3980 2270 l0 -220 35 0 34 0 3 88 3 87 33 3 c44 4 57 -8 103 -100
38 -75 41 -78 74 -78 19 0 35 4 35 10 0 5 -16 43 -36 83 l-37 73 27 27 c24 24
26 32 26 117 0 128 -2 130 -170 130 l-130 0 0 -220z m218 148 c17 -17 15 -103
-2 -117 -9 -7 -40 -11 -78 -9 l-63 3 -3 54 c-2 29 -1 60 2 67 7 18 127 19 144
2z"/>
<path d="M4584 2482 c-22 -14 -34 -52 -34 -105 0 -67 22 -98 82 -117 24 -7 61
-19 83 -25 45 -14 62 -45 51 -89 -6 -25 -9 -26 -71 -26 -65 0 -66 0 -71 30 -7
31 -22 37 -55 20 -28 -15 -25 -65 6 -95 22 -23 31 -25 124 -25 96 0 100 1 120
26 17 21 21 41 21 93 0 88 -12 104 -102 131 -102 30 -103 30 -103 81 l0 44 60
0 c59 0 60 -1 65 -30 5 -25 10 -30 30 -27 14 1 31 4 38 7 19 7 14 60 -9 89
-20 25 -24 26 -122 26 -56 0 -107 -4 -113 -8z"/>
<path d="M5380 2460 c0 -30 0 -30 60 -30 l60 0 2 -187 3 -188 35 0 35 0 3 188
2 187 60 0 c60 0 60 0 60 30 l0 30 -160 0 -160 0 0 -30z"/>
<path d="M5840 2481 c0 -5 26 -60 58 -123 55 -109 57 -116 62 -208 l5 -95 33
-3 32 -3 0 86 c0 85 0 86 65 215 36 71 65 132 65 135 0 4 -17 5 -37 3 -36 -3
-40 -6 -76 -80 -21 -43 -44 -78 -50 -78 -7 1 -29 37 -49 80 -36 78 -38 80 -73
80 -19 0 -35 -4 -35 -9z"/>
<path d="M6232 1945 c1 -14 6 -25 10 -25 4 0 8 11 8 25 0 14 -4 25 -10 25 -5
0 -9 -11 -8 -25z"/>
<path d="M6304 1955 c-7 -17 4 -37 17 -30 12 8 12 45 -1 45 -6 0 -13 -7 -16
-15z"/>
<path d="M6270 1894 c0 -8 5 -12 10 -9 6 4 8 11 5 16 -9 14 -15 11 -15 -7z"/>
<path d="M1277 1803 c-4 -3 -7 -44 -7 -90 l0 -83 2530 0 2531 0 -3 88 -3 87
-2521 3 c-1386 1 -2524 -1 -2527 -5z"/>
</g>
</svg>
